<?xml version="1.0" encoding="UTF-8"?>
<!DOCTYPE svg PUBLIC "-//W3C//DTD SVG 1.1//EN" "http://www.w3.org/Graphics/SVG/1.1/DTD/svg11.dtd">
<svg xmlns="http://www.w3.org/2000/svg" version="1.1" width="316px" height="360px" style="shape-rendering:geometricPrecision; text-rendering:geometricPrecision; image-rendering:optimizeQuality; fill-rule:evenodd; clip-rule:evenodd" xmlns:xlink="http://www.w3.org/1999/xlink">
<g><path style="opacity:0.98" fill="#ff888a" d="M 129.5,99.5 C 95.8333,99.5 62.1667,99.5 28.5,99.5C 28.3334,78.1641 28.5,56.8307 29,35.5C 31.693,26.9804 37.5264,22.9804 46.5,23.5C 50.1227,23.2438 53.456,24.0771 56.5,26C 81.0349,50.368 105.368,74.868 129.5,99.5 Z"/></g>
<g><path style="opacity:0.982" fill="#ff878b" d="M 296.5,99.5 C 262.833,99.5 229.167,99.5 195.5,99.5C 219.298,75.2014 243.298,51.0347 267.5,27C 275.5,21 283.5,21 291.5,27C 293.43,29.2583 294.93,31.7583 296,34.5C 296.5,56.1641 296.667,77.8308 296.5,99.5 Z"/></g>
<g><path style="opacity:0.995" fill="#4b5661" d="M 129.5,99.5 C 151.5,99.5 173.5,99.5 195.5,99.5C 229.167,99.5 262.833,99.5 296.5,99.5C 296.667,138.835 296.5,178.168 296,217.5C 284.604,280.895 247.438,319.395 184.5,333C 124.55,339.77 78.383,317.937 46,267.5C 36.5136,250.707 30.8469,232.707 29,213.5C 28.5001,197.837 28.3334,182.17 28.5,166.5C 29.4974,144.673 29.8307,122.673 29.5,100.5C 63.0042,100.832 96.3375,100.498 129.5,99.5 Z"/></g>
<g><path style="opacity:0.173" fill="#876770" d="M 28.5,99.5 C 62.1667,99.5 95.8333,99.5 129.5,99.5C 96.3375,100.498 63.0042,100.832 29.5,100.5C 29.8307,122.673 29.4974,144.673 28.5,166.5C 28.5,144.167 28.5,121.833 28.5,99.5 Z"/></g>
<g><path style="opacity:1" fill="#fbfcfc" d="M 98.5,166.5 C 120.539,166.036 130.706,176.703 129,198.5C 123.413,212.213 113.247,218.046 98.5,216C 84.8733,210.925 78.7066,201.091 80,186.5C 82.5777,176.425 88.7444,169.759 98.5,166.5 Z"/></g>
<g><path style="opacity:1" fill="#fbfcfc" d="M 223.5,166.5 C 245.539,166.036 255.706,176.703 254,198.5C 248.413,212.213 238.247,218.046 223.5,216C 209.873,210.925 203.707,201.091 205,186.5C 207.578,176.425 213.744,169.759 223.5,166.5 Z"/></g>
</svg>
