<?xml version="1.0" encoding="iso-8859-1"?>
<!-- Uploaded to: SVG Repo, www.svgrepo.com, Generator: SVG Repo Mixer Tools -->
<svg height="800px" width="800px" version="1.1" id="Layer_1" xmlns="http://www.w3.org/2000/svg"
     xmlns:xlink="http://www.w3.org/1999/xlink"
     viewBox="0 0 511.979 511.979" xml:space="preserve">
<path style="fill:#ED5564;" d="M490.479,355.704L469.136,238.38c-0.938-5.078-5.344-8.765-10.499-8.765H53.325
	c-5.156,0-9.57,3.687-10.492,8.765L21.499,355.704c-0.562,3.125,0.281,6.328,2.304,8.75s5.023,3.828,8.195,3.828H479.98
	c3.155,0,6.155-1.406,8.187-3.828S491.042,358.829,490.479,355.704z"/>
    <path style="fill:#656D78;" d="M501.291,357.626H10.663C4.773,357.626,0,362.392,0,368.283v42.67
	c0,5.891,4.773,10.672,10.663,10.672h490.628c5.906,0,10.688-4.781,10.688-10.672v-42.67
	C511.978,362.392,507.197,357.626,501.291,357.626z"/>
    <g>
	<path style="fill:#E6E9ED;" d="M255.989,346.954c-17.648,0-31.999-14.359-31.999-31.998c0-17.641,14.351-31.998,31.999-31.998
		c17.624,0,31.999,14.357,31.999,31.998C287.988,332.595,273.613,346.954,255.989,346.954z"/>
        <path style="fill:#E6E9ED;" d="M266.653,261.615c0,5.906-4.773,10.672-10.664,10.672c-5.898,0-10.671-4.766-10.671-10.672
		c0-5.875,4.773-10.656,10.671-10.656C261.88,250.958,266.653,255.739,266.653,261.615z"/>
        <path style="fill:#E6E9ED;" d="M233.349,266.583c4.172,4.156,4.172,10.922,0,15.078c-4.164,4.17-10.913,4.17-15.077,0
		c-4.172-4.156-4.172-10.922,0-15.078C222.436,262.411,229.185,262.411,233.349,266.583z"/>
        <path style="fill:#E6E9ED;" d="M278.613,266.583c4.156-4.172,10.906-4.172,15.094,0c4.156,4.156,4.156,10.922,0,15.078
		c-4.188,4.17-10.938,4.17-15.094,0C274.457,277.505,274.457,270.74,278.613,266.583z"/>
</g>
    <g>
	<path style="fill:#434A54;" d="M447.981,400.28c-5.906,0-10.687,4.781-10.687,10.672v10.672h21.343v-10.672
		C458.637,405.061,453.856,400.28,447.981,400.28z"/>
        <path style="fill:#434A54;" d="M405.296,400.28c-5.875,0-10.656,4.781-10.656,10.672v10.672h21.344v-10.672
		C415.983,405.061,411.202,400.28,405.296,400.28z"/>
        <path style="fill:#434A54;" d="M362.641,400.28c-5.875,0-10.656,4.781-10.656,10.672v10.672h21.312v-10.672
		C373.297,405.061,368.547,400.28,362.641,400.28z"/>
        <path style="fill:#434A54;" d="M319.987,400.28c-5.906,0-10.687,4.781-10.687,10.672v10.672h21.341v-10.672
		C330.641,405.061,325.861,400.28,319.987,400.28z"/>
        <path style="fill:#434A54;" d="M277.301,400.28c-5.875,0-10.647,4.781-10.647,10.672v10.672h21.335v-10.672
		C287.988,405.061,283.207,400.28,277.301,400.28z"/>
        <path style="fill:#434A54;" d="M234.654,400.28c-5.891,0-10.664,4.781-10.664,10.672v10.672h21.328v-10.672
		C245.318,405.061,240.544,400.28,234.654,400.28z"/>
        <path style="fill:#434A54;" d="M191.992,400.28c-5.898,0-10.672,4.781-10.672,10.672v10.672h21.335v-10.672
		C202.656,405.061,197.882,400.28,191.992,400.28z"/>
        <path style="fill:#434A54;" d="M149.322,400.28c-5.891,0-10.664,4.781-10.664,10.672v10.672h21.335v-10.672
		C159.993,405.061,155.212,400.28,149.322,400.28z"/>
        <path style="fill:#434A54;" d="M106.659,400.28c-5.891,0-10.664,4.781-10.664,10.672v10.672h21.328v-10.672
		C117.323,405.061,112.55,400.28,106.659,400.28z"/>
        <path style="fill:#434A54;" d="M63.997,400.28c-5.898,0-10.672,4.781-10.672,10.672v10.672H74.66v-10.672
		C74.661,405.061,69.887,400.28,63.997,400.28z"/>
</g>
</svg>
