<?xml version="1.0" encoding="UTF-8"?>
<!DOCTYPE svg PUBLIC "-//W3C//DTD SVG 1.1//EN" "http://www.w3.org/Graphics/SVG/1.1/DTD/svg11.dtd">
<svg xmlns="http://www.w3.org/2000/svg" version="1.1" width="368px" height="293px" style="shape-rendering:geometricPrecision; text-rendering:geometricPrecision; image-rendering:optimizeQuality; fill-rule:evenodd; clip-rule:evenodd" xmlns:xlink="http://www.w3.org/1999/xlink">
<g><path style="opacity:0.932" fill="#080400" d="M 116.5,-0.5 C 123.167,-0.5 129.833,-0.5 136.5,-0.5C 204.258,20.0457 266.591,51.2124 323.5,93C 337.449,103.383 345.949,117.216 349,134.5C 351.874,158.442 354.207,182.442 356,206.5C 362.699,213.996 364.532,222.496 361.5,232C 364.128,236.848 364.128,241.681 361.5,246.5C 363.941,248.926 365.941,251.593 367.5,254.5C 367.5,258.167 367.5,261.833 367.5,265.5C 363.108,273.868 356.108,277.868 346.5,277.5C 346.789,280.649 346.289,283.649 345,286.5C 342.937,288.734 340.771,290.734 338.5,292.5C 335.167,292.5 331.833,292.5 328.5,292.5C 319.192,286.905 314.192,278.571 313.5,267.5C 301.472,266.564 292.972,260.564 288,249.5C 286.938,250.097 285.772,250.43 284.5,250.5C 258.251,247.069 232.251,242.236 206.5,236C 157.909,223.352 109.242,211.019 60.5,199C 52.5529,197.098 44.8862,194.431 37.5,191C 26.3788,178.267 18.2122,163.767 13,147.5C 6.36754,127.16 1.86754,106.493 -0.5,85.5C -0.5,79.1667 -0.5,72.8333 -0.5,66.5C 3.17577,60.3109 7.84244,54.8109 13.5,50C 45.5011,28.3325 79.8344,11.4992 116.5,-0.5 Z"/></g>
<g><path style="opacity:1" fill="#fda300" d="M 114.5,5.5 C 123.552,5.19288 132.552,5.69288 141.5,7C 207.116,28.3048 267.45,59.3048 322.5,100C 327.262,104.089 331.262,108.756 334.5,114C 328.846,123.654 321.179,131.321 311.5,137C 297.111,145.093 281.777,149.759 265.5,151C 230.753,141.98 196.087,132.647 161.5,123C 109.495,106.054 57.4954,89.2203 5.5,72.5C 5.45982,69.5755 6.29315,66.9088 8,64.5C 15.964,56.1967 24.7973,49.03 34.5,43C 60.3624,28.5662 87.029,16.0662 114.5,5.5 Z"/></g>
<g><path style="opacity:1" fill="#fda300" d="M 5.5,77.5 C 51.1644,92.5548 96.8311,107.721 142.5,123C 183.514,134.336 224.514,145.502 265.5,156.5C 264.765,187.227 271.432,216.227 285.5,243.5C 284,243.833 282.5,244.167 281,244.5C 255.97,240.694 231.136,235.861 206.5,230C 151.665,216.277 96.998,201.943 42.5,187C 34.0274,178.174 27.5274,168.007 23,156.5C 12.6684,131.183 6.83505,104.85 5.5,77.5 Z"/></g>
<g><path style="opacity:1" fill="#5f5f5f" d="M 336.5,120.5 C 338.335,121.122 339.502,122.456 340,124.5C 341.644,129.077 342.978,133.744 344,138.5C 346.063,154.113 347.063,169.779 347,185.5C 343.421,183.484 339.587,182.151 335.5,181.5C 337.652,172.8 334.652,166.467 326.5,162.5C 325.94,152.531 320.94,146.031 311.5,143C 321.592,137.406 329.925,129.906 336.5,120.5 Z"/></g>
<g><path style="opacity:1" fill="#f97600" d="M 304.5,148.5 C 315.5,148.167 320.833,153.5 320.5,164.5C 311.676,162.44 304.843,165.107 300,172.5C 297.669,182.006 301.169,188.172 310.5,191C 315.833,191.667 321.167,191.667 326.5,191C 333.678,186.214 340.511,186.714 347,192.5C 348.027,196.18 347.194,199.347 344.5,202C 337.784,203.69 334.617,207.857 335,214.5C 339.72,224.553 347.053,231.887 357,236.5C 358.776,242.906 356.943,244.572 351.5,241.5C 347.476,242.355 346.809,244.188 349.5,247C 358.426,249.034 362.259,254.534 361,263.5C 356.068,271.234 349.401,273.234 341,269.5C 340.228,269.645 339.561,269.978 339,270.5C 339.291,273.295 339.791,276.129 340.5,279C 339.729,285.565 336.062,287.898 329.5,286C 322.471,280.391 319.471,273.224 320.5,264.5C 327.965,260.223 330.465,253.89 328,245.5C 322.204,236.686 314.037,232.853 303.5,234C 299.536,236.005 299.536,237.838 303.5,239.5C 311.559,238.106 318.059,240.773 323,247.5C 323.742,257.754 318.908,262.254 308.5,261C 304.242,259.616 300.742,257.116 298,253.5C 286.006,235.171 278.172,215.171 274.5,193.5C 284.197,192.978 288.697,187.978 288,178.5C 284.646,170.905 278.813,166.905 270.5,166.5C 270.107,163.07 270.773,159.904 272.5,157C 283.707,155.7 294.374,152.867 304.5,148.5 Z"/></g>
<g><path style="opacity:1" fill="#f47400" d="M 323.5,167.5 C 331.334,171.166 333,176.666 328.5,184C 320.67,187.632 313.17,187.132 306,182.5C 302.773,173.968 305.773,169.635 315,169.5C 317.042,169.615 319.042,169.949 321,170.5C 322.749,170.252 323.582,169.252 323.5,167.5 Z"/></g>
<g><path style="opacity:1" fill="#ee7100" d="M 270.5,171.5 C 276.969,172.635 281.302,176.302 283.5,182.5C 283.471,184.029 282.804,185.196 281.5,186C 278.625,187.302 275.625,188.135 272.5,188.5C 271.646,182.858 270.98,177.191 270.5,171.5 Z"/></g>
<g><path style="opacity:1" fill="#0e0500" d="M 297.5,199.5 C 303.892,198.791 309.892,199.957 315.5,203C 320.969,208.802 319.969,213.468 312.5,217C 305.916,218.544 299.249,218.877 292.5,218C 285.302,213.606 284.635,208.273 290.5,202C 294.111,200.746 295.611,201.912 295,205.5C 290.236,208.655 290.402,211.155 295.5,213C 301.394,214.037 307.061,213.371 312.5,211C 313.022,210.439 313.355,209.772 313.5,209C 311.874,207.181 309.874,205.848 307.5,205C 303.848,204.501 300.182,204.335 296.5,204.5C 296.366,202.708 296.699,201.042 297.5,199.5 Z"/></g>
<g><path style="opacity:1" fill="#f07200" d="M 344.5,207.5 C 352.259,210.134 356.592,215.634 357.5,224C 357.744,226.385 356.911,228.218 355,229.5C 348.75,226.02 344.084,221.02 341,214.5C 340.176,211.16 341.343,208.827 344.5,207.5 Z"/></g>
</svg>
