<?xml version="1.0" encoding="iso-8859-1"?>
<!-- Uploaded to: SVG Repo, www.svgrepo.com, Generator: SVG Repo Mixer Tools -->
<svg height="800px" width="800px" version="1.1" id="Layer_1" xmlns="http://www.w3.org/2000/svg"
     xmlns:xlink="http://www.w3.org/1999/xlink"
     viewBox="0 0 511.979 511.979" xml:space="preserve">
<path style="fill:#FFCE54;" d="M111.87,293.596c-20.78,0-37.686-15.967-37.686-35.576c0-10.531,5.078-18.234,14.296-21.703
	c6.546-2.453,14.265-2.453,21.733-2.453h0.078c1.258-18.03,16.812-32.436,36.03-33.186c1.242-18.031,16.796-32.452,36.029-33.202
	c1.242-18.046,16.796-32.467,36.03-33.217c1.273-18.531,17.655-33.233,37.607-33.233c19.937,0,36.312,14.703,37.593,33.233
	c19.249,0.75,34.779,15.171,36.029,33.217c19.249,0.75,34.78,15.171,36.03,33.202c19.217,0.75,34.779,15.156,36.029,33.186h0.062
	c7.469,0,15.219,0,21.75,2.453c9.218,3.469,14.312,11.172,14.312,21.703c0,19.609-16.905,35.576-37.687,35.576H111.87z"/>
    <path style="fill:#F6BB42;" d="M442.825,238.396c-3.718-5.515-8.968-9.578-15.593-12.062c-5.437-2.031-11.155-2.75-16.718-3
	c-4.875-16.031-18.594-28.483-35.749-32.202c-4.594-16.515-18.53-29.421-36.03-33.218c-4.594-16.499-18.529-29.405-36.028-33.202
	c-5.5-19.765-24.375-34.358-46.718-34.358c-22.374,0-41.24,14.594-46.74,34.358c-17.507,3.797-31.428,16.703-36.03,33.202
	c-17.507,3.797-31.428,16.703-36.022,33.218c-17.155,3.719-30.866,16.171-35.741,32.202c-5.555,0.25-11.304,0.969-16.734,3
	c-6.616,2.484-11.866,6.547-15.585,12.062c-3.734,5.531-5.625,12.125-5.625,19.625c0,25.498,21.694,46.232,48.357,46.232h288.238
	c26.655,0,48.342-20.734,48.342-46.232C448.45,250.521,446.544,243.927,442.825,238.396z M400.108,282.927
	c-14.938,0-273.317,0-288.238,0s-27.022-11.156-27.022-24.906c0-13.25,11.21-13.5,25.366-13.5c0.547,0,1.102,0,1.656,0
	c4.164,0,8.109,0.875,11.64,2.438c-1.687-3.25-2.632-6.891-2.632-10.734c0-13.749,12.101-24.905,27.022-24.905
	c4.163,0,8.108,0.875,11.632,2.422c-1.68-3.25-2.625-6.891-2.625-10.718c0-10.187,6.617-18.921,16.101-22.796
	c2.055,2.219,20.421,21.281,44.053,21.281c1.523,0,3.078-0.078,4.641-0.25c5.858-0.625,10.093-5.89,9.46-11.734
	c-0.625-5.859-5.891-10.094-11.749-9.469c-10.71,1.156-20.929-5.718-26.476-10.359c0.062-13.703,12.132-24.795,27.022-24.795
	c4.163,0,8.108,0.875,11.632,2.421c-1.68-3.25-2.633-6.89-2.633-10.733c0-13.75,12.101-24.906,27.03-24.906
	c14.921,0,26.999,11.156,26.999,24.906c0,0.469,0,0.938-0.031,1.406c-4.906,4.375-13.453,9.171-26.913,8.125
	c-5.882-0.453-11.007,3.937-11.46,9.812c-0.461,5.859,3.93,11,9.796,11.453c1.914,0.156,3.766,0.219,5.555,0.219
	c23.835,0,37.335-12.516,43.46-20.39c9.218,3.953,15.624,12.578,15.624,22.593c0,3.844-0.938,7.484-2.625,10.734
	c3.531-1.562,7.469-2.438,11.655-2.438c14.905,0,26.999,11.156,26.999,24.921c0,3.828-0.938,7.468-2.625,10.718
	c3.531-1.547,7.469-2.422,11.656-2.422c14.905,0,26.998,11.156,26.998,24.905c0,3.844-0.938,7.484-2.625,10.734
	c3.531-1.562,7.469-2.438,11.656-2.438c0.531,0,1.094,0,1.625,0c14.156,0,25.374,0.25,25.374,13.5
	C427.107,271.771,415.014,282.927,400.108,282.927z"/>
    <path style="fill:#ED5564;" d="M490.479,355.704L469.136,238.38c-0.938-5.078-5.344-8.765-10.499-8.765H53.325
	c-5.156,0-9.57,3.687-10.492,8.765L21.499,355.704c-0.562,3.125,0.281,6.328,2.304,8.75s5.023,3.828,8.195,3.828H479.98
	c3.155,0,6.155-1.406,8.187-3.828S491.042,358.829,490.479,355.704z"/>
    <path style="fill:#656D78;" d="M501.291,357.626H10.663C4.773,357.626,0,362.392,0,368.283v42.67
	c0,5.891,4.773,10.672,10.663,10.672h490.628c5.906,0,10.688-4.781,10.688-10.672v-42.67
	C511.978,362.392,507.197,357.626,501.291,357.626z"/>
    <g>
	<path style="fill:#E6E9ED;" d="M255.989,346.954c-17.648,0-31.999-14.359-31.999-31.998c0-17.641,14.351-31.998,31.999-31.998
		c17.624,0,31.999,14.357,31.999,31.998C287.988,332.595,273.613,346.954,255.989,346.954z"/>
        <path style="fill:#E6E9ED;" d="M266.653,261.615c0,5.906-4.773,10.672-10.664,10.672c-5.898,0-10.671-4.766-10.671-10.672
		c0-5.875,4.773-10.656,10.671-10.656C261.88,250.958,266.653,255.739,266.653,261.615z"/>
        <path style="fill:#E6E9ED;" d="M233.349,266.583c4.172,4.156,4.172,10.922,0,15.078c-4.164,4.17-10.913,4.17-15.077,0
		c-4.172-4.156-4.172-10.922,0-15.078C222.436,262.411,229.185,262.411,233.349,266.583z"/>
        <path style="fill:#E6E9ED;" d="M278.613,266.583c4.156-4.172,10.906-4.172,15.094,0c4.156,4.156,4.156,10.922,0,15.078
		c-4.188,4.17-10.938,4.17-15.094,0C274.457,277.505,274.457,270.74,278.613,266.583z"/>
</g>
    <g>
	<path style="fill:#434A54;" d="M447.981,400.28c-5.906,0-10.687,4.781-10.687,10.672v10.672h21.343v-10.672
		C458.637,405.061,453.856,400.28,447.981,400.28z"/>
        <path style="fill:#434A54;" d="M405.296,400.28c-5.875,0-10.656,4.781-10.656,10.672v10.672h21.344v-10.672
		C415.983,405.061,411.202,400.28,405.296,400.28z"/>
        <path style="fill:#434A54;" d="M362.641,400.28c-5.875,0-10.656,4.781-10.656,10.672v10.672h21.312v-10.672
		C373.297,405.061,368.547,400.28,362.641,400.28z"/>
        <path style="fill:#434A54;" d="M319.987,400.28c-5.906,0-10.687,4.781-10.687,10.672v10.672h21.341v-10.672
		C330.641,405.061,325.861,400.28,319.987,400.28z"/>
        <path style="fill:#434A54;" d="M277.301,400.28c-5.875,0-10.647,4.781-10.647,10.672v10.672h21.335v-10.672
		C287.988,405.061,283.207,400.28,277.301,400.28z"/>
        <path style="fill:#434A54;" d="M234.654,400.28c-5.891,0-10.664,4.781-10.664,10.672v10.672h21.328v-10.672
		C245.318,405.061,240.544,400.28,234.654,400.28z"/>
        <path style="fill:#434A54;" d="M191.992,400.28c-5.898,0-10.672,4.781-10.672,10.672v10.672h21.335v-10.672
		C202.656,405.061,197.882,400.28,191.992,400.28z"/>
        <path style="fill:#434A54;" d="M149.322,400.28c-5.891,0-10.664,4.781-10.664,10.672v10.672h21.335v-10.672
		C159.993,405.061,155.212,400.28,149.322,400.28z"/>
        <path style="fill:#434A54;" d="M106.659,400.28c-5.891,0-10.664,4.781-10.664,10.672v10.672h21.328v-10.672
		C117.323,405.061,112.55,400.28,106.659,400.28z"/>
        <path style="fill:#434A54;" d="M63.997,400.28c-5.898,0-10.672,4.781-10.672,10.672v10.672H74.66v-10.672
		C74.661,405.061,69.887,400.28,63.997,400.28z"/>
</g>
</svg>
